# Blender v2.90.1 OBJ File: 'untitled.blend'
# www.blender.org
mtllib saskatoon_square.mtl
o Cube
v 1.677077 -1.426749 0.802148
v 1.677077 -1.433193 0.802148
v 1.677077 -1.426749 -2.550412
v 1.677077 -1.433193 -2.550412
v -1.680496 -1.426749 0.802148
v -1.680496 -1.433193 0.802148
v -1.680496 -1.426749 -2.550412
v -1.680496 -1.433193 -2.550412
vt 0.017944 1.090465
vt 0.112311 1.090465
vt 0.112311 1.184833
vt 0.017944 1.184833
vt -0.076424 1.184833
vt 0.017944 1.279200
vt -0.076424 1.279200
vt -0.076424 0.901730
vt 0.017944 0.901730
vt 0.017944 0.996098
vt -0.076424 0.996098
vt -0.170791 1.090465
vt -0.076424 1.090465
vt -0.170791 1.184833
vn 0.0000 -1.0000 0.0000
vn 0.0000 0.0000 1.0000
vn 1.0000 0.0000 0.0000
vn 0.0000 1.0000 0.0000
vn -1.0000 0.0000 0.0000
vn 0.0000 0.0000 -1.0000
usemtl Material.002
s off
f 1/1/1 5/2/1 7/3/1 3/4/1
f 4/5/2 3/4/2 7/6/2 8/7/2
f 8/8/3 7/9/3 5/10/3 6/11/3
f 6/12/4 2/13/4 4/5/4 8/14/4
f 2/13/5 1/1/5 3/4/5 4/5/5
f 6/11/6 5/10/6 1/1/6 2/13/6
o Cube.001
v -1.192128 -1.425148 -1.690647
v -0.824899 -1.425148 -2.054898
v -0.824899 -0.965019 -2.054898
v -1.192128 -0.965019 -1.690647
v 0.709193 -1.425148 -2.054898
v 1.188709 -1.425148 -1.579271
v 1.188709 -0.965019 -1.579271
v 0.709193 -0.965019 -2.054898
v 1.188709 -1.425148 -0.043629
v 0.835582 -1.425148 0.306634
v 0.835582 -0.965019 0.306634
v 1.188709 -0.965019 -0.043629
v -0.766905 -1.425148 0.306634
v -1.192128 -1.425148 -0.115141
v -1.192128 -0.965019 -0.115141
v -0.766905 -0.965019 0.306634
vt 0.336984 0.536800
vt 0.381227 0.550920
vt 0.380933 0.595800
vt 0.346909 0.606473
vt 0.200048 0.606168
vt 0.160813 0.593647
vt 0.161120 0.546766
vt 0.193838 0.536503
vt 0.348278 0.397520
vt 0.382162 0.408334
vt 0.381868 0.453213
vt 0.337440 0.467149
vt 0.194294 0.466853
vt 0.161712 0.456454
vt 0.162019 0.409574
vt 0.201417 0.397216
vt 0.567497 0.537278
vt 0.567953 0.467627
vt 0.635861 0.467768
vt 0.635404 0.537419
vt 0.425655 0.536984
vt 0.426111 0.467333
vt 0.882939 0.369895
vt 0.941958 0.370153
vt 0.950136 0.411272
vt 0.880755 0.409556
vt 0.782722 0.468072
vt 0.782266 0.537723
vt 0.887245 0.366499
vt 0.946300 0.369738
vt 0.945995 0.403554
vt 0.881759 0.404687
vt 0.937833 0.637678
vt 0.864308 0.633632
vt 0.876371 0.407108
vt 0.947521 0.406243
vt 0.822038 0.468154
vt 0.821582 0.537805
vt 0.933000 0.616325
vt 0.861128 0.622365
vt 0.879199 0.426997
vt 0.945195 0.428176
vn 0.0000 1.0000 0.0000
vn 0.0000 -1.0000 -0.0000
vn -0.7042 0.0000 -0.7100
vn 0.0000 0.0000 -1.0000
vn 0.7042 0.0000 -0.7100
vn -1.0000 0.0000 0.0000
vn 0.7042 0.0000 0.7100
vn 1.0000 0.0000 0.0000
vn -0.7042 0.0000 0.7100
vn 0.0000 0.0000 1.0000
usemtl Material.003
s off
f 15/15/7 16/16/7 11/17/7 12/18/7 23/19/7 24/20/7 19/21/7 20/22/7
f 9/23/8 10/24/8 13/25/8 14/26/8 17/27/8 18/28/8 21/29/8 22/30/8
f 11/31/9 10/32/9 9/33/9 12/34/9
f 10/32/10 11/31/10 16/35/10 13/36/10
f 15/37/11 14/38/11 13/39/11 16/40/11
f 22/41/12 23/42/12 12/34/12 9/33/12
f 19/43/13 18/44/13 17/45/13 20/46/13
f 14/47/14 15/48/14 20/49/14 17/50/14
f 21/51/15 24/52/15 23/42/15 22/41/15
f 18/53/16 19/54/16 24/55/16 21/56/16
o Cube.002
v 1.195112 -0.973147 -0.018796
v 0.857089 -0.973147 0.317864
v 1.169382 -0.973147 0.110038
v 1.096108 -0.973147 0.219259
v 0.986445 -0.973147 0.292238
v 0.857089 3.698320 0.317864
v 1.195112 3.698320 -0.018796
v 0.986445 3.698320 0.292238
v 1.096108 3.698320 0.219259
v 1.169382 3.698320 0.110038
v 0.846355 -0.973147 -2.066128
v 1.195112 -0.973147 -1.718777
v 0.979819 -0.973147 -2.039688
v 1.092964 -0.973147 -1.964391
v 1.168565 -0.973147 -1.851702
v 1.195112 3.698320 -1.718777
v 0.846355 3.698320 -2.066128
v 1.168565 3.698320 -1.851702
v 1.092964 3.698320 -1.964391
v 0.979819 3.698320 -2.039688
v -0.858925 -0.973147 0.317864
v -1.198532 -0.973147 -0.020373
v -0.988887 -0.973147 0.292118
v -1.099063 -0.973147 0.218797
v -1.172681 -0.973147 0.109065
v -1.198532 3.698320 -0.020373
v -0.858925 3.698320 0.317864
v -1.172681 3.698320 0.109065
v -1.099063 3.698320 0.218797
v -0.988887 3.698320 0.292118
v -1.198532 -0.973147 -1.730708
v -0.861754 -0.973147 -2.066128
v -1.172896 -0.973147 -1.859068
v -1.099892 -0.973147 -1.967886
v -0.990633 -0.973147 -2.040596
v -0.861754 3.698320 -2.066128
v -1.198532 3.698320 -1.730708
v -0.990633 3.698320 -2.040596
v -1.099892 3.698320 -1.967886
v -1.172896 3.698320 -1.859068
vt 0.874265 0.321483
vt 0.035884 0.320651
vt 0.038547 0.058294
vt 0.871683 0.056463
vt 0.864811 0.663785
vt 0.040771 0.654124
vt 0.041302 0.389737
vt 0.878452 0.390806
vt 0.033016 0.327261
vt 0.876426 0.332821
vt 0.875226 0.352791
vt 0.039090 0.347174
vt 0.049568 0.342754
vt 0.861136 0.345889
vt 0.873549 0.356874
vt 0.088573 0.355265
vt 0.075938 0.368623
vt 0.879950 0.367863
vt 0.874649 0.376763
vt 0.048345 0.381137
vt 0.057820 0.376086
vt 0.876470 0.371393
vt 0.878907 0.392433
vt 0.039724 0.390294
vt 0.223873 -0.407835
vt 0.391435 -0.616914
vt 0.393980 -0.606242
vt 0.397780 -0.594308
vt 0.259047 -0.443009
vt 0.437448 -0.443009
vt 0.466380 -0.457073
vt 0.470322 -0.439448
vt 0.472951 -0.420521
vt 0.473873 -0.406584
vt 0.473873 -0.228313
vt 0.472977 -0.214803
vt 0.470426 -0.196456
vt 0.466608 -0.179375
vt 0.438569 -0.193009
vt 0.259343 -0.193009
vt 0.245777 -0.195709
vt 0.234281 -0.203398
vt 0.226581 -0.214905
vt 0.223873 -0.228479
vt 0.045584 0.637825
vt 0.867909 0.648198
vt 0.868703 0.662427
vt 0.041079 0.652037
vt 0.045359 0.659703
vt 0.863737 0.668927
vt 0.847714 0.679882
vt 0.065643 0.672075
vt 0.727425 -0.439448
vt 0.731367 -0.457073
vt 0.473873 -0.479434
vt 0.723873 -0.479434
vt 0.037417 0.632640
vt 0.045565 0.378877
vt 0.862091 0.375840
vt 0.853944 0.641307
vt 0.872800 0.066085
vt 0.032414 0.071117
vt 0.035171 0.060593
vt 0.867439 0.055572
vt 0.322962 0.675847
vt 0.072966 0.675068
vt 0.073181 0.653172
vt 0.323178 0.653951
vt 0.473873 -0.943009
vt 0.723873 -0.943009
vt 0.723873 -0.921113
vt 0.473873 -0.921113
vt 0.723873 -0.907539
vt 0.473873 -0.907539
vt 0.864559 0.786692
vt 0.864781 0.783337
vt 0.865414 0.778780
vt 0.866363 0.774536
vt 0.873329 0.777923
vt 0.919620 0.790133
vt 0.882879 0.741496
vt 0.883794 0.738623
vt 0.884407 0.736053
vt 0.924749 0.786391
vt 0.924749 0.829572
vt 0.924097 0.832841
vt 0.922243 0.835611
vt 0.919475 0.837462
vt 0.916209 0.838112
vt 0.873059 0.838112
vt 0.866308 0.841394
vt 0.865389 0.837282
vt 0.864775 0.832865
vt 0.864559 0.829612
vt 0.723873 -0.657835
vt 0.473873 -0.657835
vt 0.799966 -0.594308
vt 0.803766 -0.606242
vt 0.806311 -0.616914
vt 0.473873 -0.728183
vt 0.723873 -0.728183
vt 0.857833 0.640902
vt 0.042989 0.636345
vt 0.035629 0.378296
vt 0.871281 0.382853
vn 0.0000 0.0000 1.0000
vn 1.0000 0.0000 0.0000
vn 0.1943 0.0000 0.9809
vn 0.5540 0.0000 0.8325
vn 0.8304 0.0000 0.5571
vn 0.9806 0.0000 0.1959
vn 0.0000 -1.0000 -0.0000
vn 0.9806 0.0000 -0.1959
vn 0.8304 0.0000 -0.5571
vn 0.5540 0.0000 -0.8325
vn 0.1943 0.0000 -0.9809
vn 0.0000 0.0000 -1.0000
vn -0.1943 0.0000 0.9809
vn -0.5540 0.0000 0.8325
vn -0.8304 0.0000 0.5571
vn -0.9806 0.0000 0.1958
vn 0.0000 1.0000 -0.0000
vn -0.1943 0.0000 -0.9809
vn -0.5540 0.0000 -0.8325
vn -0.8304 0.0000 -0.5571
vn -0.9806 0.0000 -0.1958
vn -1.0000 0.0000 0.0000
usemtl Material.001
s off
f 26/57/17 30/58/17 51/59/17 45/60/17
f 36/61/18 40/62/18 31/63/18 25/64/18
f 30/65/19 26/66/19 29/67/19 32/68/19
f 32/69/20 29/70/20 28/71/20 33/72/20
f 33/73/21 28/74/21 27/75/21 34/76/21
f 34/77/22 27/78/22 25/79/22 31/80/22
f 55/81/23 57/82/23 58/83/23 59/84/23 56/85/23 35/86/23 37/87/23 38/88/23 39/89/23 36/90/23 25/91/23 27/92/23 28/93/23 29/94/23 26/95/23 45/96/23 47/97/23 48/98/23 49/99/23 46/100/23
f 40/101/24 36/102/24 39/103/24 42/104/24
f 42/105/25 39/106/25 38/107/25 43/108/25
f 43/109/26 38/88/26 37/87/26 44/110/26
f 44/110/27 37/87/27 35/111/27 41/112/27
f 56/113/28 60/114/28 41/115/28 35/116/28
f 45/117/29 51/118/29 54/119/29 47/120/29
f 47/121/30 54/122/30 53/123/30 48/124/30
f 48/125/31 53/126/31 52/127/31 49/128/31
f 49/128/32 52/127/32 50/129/32 46/130/32
f 40/131/33 42/132/33 43/133/33 44/134/33 41/135/33 60/136/33 62/137/33 63/138/33 64/139/33 61/140/33 50/141/33 52/142/33 53/143/33 54/144/33 51/145/33 30/146/33 32/147/33 33/148/33 34/149/33 31/150/33
f 60/151/34 56/152/34 59/84/34 62/153/34
f 62/153/35 59/84/35 58/83/35 63/154/35
f 63/154/36 58/83/36 57/82/36 64/155/36
f 64/155/37 57/82/37 55/156/37 61/157/37
f 46/158/38 50/159/38 61/160/38 55/161/38
o Cube.003
v -0.797983 3.587597 -0.077859
v -0.797983 3.992973 -0.077859
v -0.797983 3.587597 -1.670405
v -0.797983 3.992973 -1.670405
v 0.794563 3.587597 -0.077859
v 0.794563 3.992973 -0.077859
v 0.794563 3.587597 -1.670405
v 0.794563 3.992973 -1.670405
vt 1.143462 0.932735
vt 0.893463 0.932010
vt 0.894188 0.682011
vt 1.144187 0.682736
vt 0.894913 0.432012
vt 1.144912 0.432738
vt 0.855567 0.842818
vt 0.852607 0.975631
vt -0.001030 0.969651
vt 0.008866 0.856344
vt 0.780095 0.659240
vt 0.797747 0.831066
vt 0.027342 0.836595
vt -0.011117 0.656966
vt 1.394911 0.433463
vt 1.145637 0.182739
vt 1.395636 0.183464
vt 0.943464 0.810444
vt 0.839116 0.833127
vt 0.860648 0.750887
vt 0.930317 0.755514
vn -1.0000 0.0000 0.0000
vn 0.0000 0.0000 -1.0000
vn 1.0000 0.0000 0.0000
vn 0.0000 0.0000 1.0000
vn 0.0000 -1.0000 0.0000
vn 0.0000 1.0000 0.0000
usemtl Material.004
s off
f 65/162/39 66/163/39 68/164/39 67/165/39
f 67/165/40 68/164/40 72/166/40 71/167/40
f 71/168/41 72/169/41 70/170/41 69/171/41
f 69/172/42 70/173/42 66/174/42 65/175/42
f 67/176/43 71/167/43 69/177/43 65/178/43
f 72/179/44 68/180/44 66/181/44 70/182/44
o Cube.004
v -0.498777 3.967988 -0.377065
v -0.498777 4.083810 -0.377065
v -0.498777 3.967988 -1.371199
v -0.498777 4.083810 -1.371199
v 0.495358 3.967988 -0.377065
v 0.495358 4.083810 -0.377065
v 0.495358 3.967988 -1.371199
v 0.495358 4.083810 -1.371199
vt 1.440187 0.067631
vt 1.690187 0.067631
vt 1.690187 0.317631
vt 1.440187 0.317631
vt 1.690187 0.567631
vt 1.440187 0.567631
vt 1.690187 0.817631
vt 1.440187 0.817631
vt 1.690187 1.067631
vt 1.440187 1.067631
vt 1.190187 0.567631
vt 1.190187 0.817631
vt 1.940187 0.567631
vt 1.940187 0.817631
vn -1.0000 0.0000 0.0000
vn 0.0000 0.0000 -1.0000
vn 1.0000 0.0000 0.0000
vn 0.0000 0.0000 1.0000
vn 0.0000 -1.0000 0.0000
vn 0.0000 1.0000 0.0000
usemtl None
s off
f 73/183/45 74/184/45 76/185/45 75/186/45
f 75/186/46 76/185/46 80/187/46 79/188/46
f 79/188/47 80/187/47 78/189/47 77/190/47
f 77/190/48 78/189/48 74/191/48 73/192/48
f 75/193/49 79/188/49 77/190/49 73/194/49
f 80/187/50 76/195/50 74/196/50 78/189/50
