# Blender v2.90.1 OBJ File: ''
# www.blender.org
mtllib temp_texture.mtl
o Cube
v 6.957408 -9.237453 6.947022
v 6.957408 -9.264160 6.947022
v 6.957408 -9.237453 -6.947022
v 6.957408 -9.264160 -6.947022
v -6.957408 -9.237453 6.947022
v -6.957408 -9.264160 6.947022
v -6.957408 -9.237453 -6.947022
v -6.957408 -9.264160 -6.947022
vt 0.017944 1.090465
vt 0.112311 1.090465
vt 0.112311 1.184833
vt 0.017944 1.184833
vt -0.076424 1.184833
vt 0.017944 1.279200
vt -0.076424 1.279200
vt -0.076424 0.901730
vt 0.017944 0.901730
vt 0.017944 0.996098
vt -0.076424 0.996098
vt -0.170791 1.090465
vt -0.076424 1.090465
vt -0.170791 1.184833
vn 0.0000 -1.0000 0.0000
vn 0.0000 0.0000 1.0000
vn 1.0000 0.0000 0.0000
vn 0.0000 1.0000 0.0000
vn -1.0000 0.0000 0.0000
vn 0.0000 0.0000 -1.0000
usemtl Material.002
s off
f 1/1/1 5/2/1 7/3/1 3/4/1
f 4/5/2 3/4/2 7/6/2 8/7/2
f 8/8/3 7/9/3 5/10/3 6/11/3
f 6/12/4 2/13/4 4/5/4 8/14/4
f 2/13/5 1/1/5 3/4/5 4/5/5
f 6/11/6 5/10/6 1/1/6 2/13/6
o Cube.001
v -4.933460 -9.230821 -3.383891
v -3.411552 -9.230821 -4.893459
v -3.411552 -7.323901 -4.893459
v -4.933460 -7.323901 -3.383891
v 2.946201 -9.230821 -4.893459
v 4.933460 -9.230821 -2.922313
v 4.933460 -7.323901 -2.922313
v 2.946201 -7.323901 -4.893459
v 4.933460 -9.230821 3.441859
v 3.469993 -9.230821 4.893459
v 3.469993 -7.323901 4.893459
v 4.933460 -7.323901 3.441859
v -3.171205 -9.230821 4.893459
v -4.933460 -9.230821 3.145493
v -4.933460 -7.323901 3.145493
v -3.171205 -7.323901 4.893459
vt 0.336984 0.536800
vt 0.381227 0.550920
vt 0.380933 0.595800
vt 0.346909 0.606473
vt 0.200048 0.606168
vt 0.160813 0.593647
vt 0.161120 0.546766
vt 0.193838 0.536503
vt 0.348278 0.397520
vt 0.382162 0.408334
vt 0.381868 0.453213
vt 0.337440 0.467149
vt 0.194294 0.466853
vt 0.161712 0.456454
vt 0.162019 0.409574
vt 0.201417 0.397216
vt 0.567497 0.537278
vt 0.567953 0.467627
vt 0.635861 0.467768
vt 0.635404 0.537419
vt 0.425655 0.536984
vt 0.426111 0.467333
vt 0.882939 0.369895
vt 0.941958 0.370153
vt 0.950136 0.411272
vt 0.880755 0.409556
vt 0.782722 0.468072
vt 0.782266 0.537723
vt 0.887245 0.366499
vt 0.946300 0.369738
vt 0.945995 0.403554
vt 0.881759 0.404687
vt 0.937833 0.637678
vt 0.864308 0.633632
vt 0.876371 0.407108
vt 0.947521 0.406243
vt 0.822038 0.468154
vt 0.821582 0.537805
vt 0.933000 0.616325
vt 0.861128 0.622365
vt 0.879199 0.426997
vt 0.945195 0.428176
vn 0.0000 1.0000 0.0000
vn 0.0000 -1.0000 -0.0000
vn -0.7042 0.0000 -0.7100
vn 0.0000 0.0000 -1.0000
vn 0.7042 0.0000 -0.7100
vn -1.0000 0.0000 0.0000
vn 0.7042 0.0000 0.7100
vn 1.0000 0.0000 0.0000
vn -0.7042 0.0000 0.7100
vn 0.0000 0.0000 1.0000
usemtl Material.003
s off
f 15/15/7 16/16/7 11/17/7 12/18/7 23/19/7 24/20/7 19/21/7 20/22/7
f 9/23/8 10/24/8 13/25/8 14/26/8 17/27/8 18/28/8 21/29/8 22/30/8
f 11/31/9 10/32/9 9/33/9 12/34/9
f 10/32/10 11/31/10 16/35/10 13/36/10
f 15/37/11 14/38/11 13/39/11 16/40/11
f 22/41/12 23/42/12 12/34/12 9/33/12
f 19/43/13 18/44/13 17/45/13 20/46/13
f 14/47/14 15/48/14 20/49/14 17/50/14
f 21/51/15 24/52/15 23/42/15 22/41/15
f 18/53/16 19/54/16 24/55/16 21/56/16
o Cube.002
v 4.960000 -7.357586 3.544776
v 3.559128 -7.357586 4.940000
v 4.853365 -7.357586 4.078705
v 4.549694 -7.357586 4.531348
v 4.095218 -7.357586 4.833795
v 3.559128 12.002413 4.940000
v 4.960000 12.002413 3.544776
v 4.095218 12.002413 4.833795
v 4.549694 12.002413 4.531348
v 4.853365 12.002413 4.078705
v 3.514642 -7.357586 -4.940000
v 4.960000 -7.357586 -3.500470
v 4.067756 -7.357586 -4.830422
v 4.536664 -7.357586 -4.518372
v 4.849978 -7.357586 -4.051354
v 4.960000 12.002413 -3.500470
v 3.514642 12.002413 -4.940000
v 4.849978 12.002413 -4.051354
v 4.536664 12.002413 -4.518372
v 4.067756 12.002413 -4.830422
v -3.552565 -7.357586 4.940000
v -4.960000 -7.357586 3.538241
v -4.091167 -7.357586 4.833297
v -4.547772 -7.357586 4.529434
v -4.852866 -7.357586 4.074671
v -4.960000 12.002413 3.538241
v -3.552565 12.002413 4.940000
v -4.852866 12.002413 4.074671
v -4.547772 12.002413 4.529434
v -4.091167 12.002413 4.833297
v -4.960000 -7.357586 -3.549914
v -3.564286 -7.357586 -4.940000
v -4.853757 -7.357586 -4.081877
v -4.551205 -7.357586 -4.532853
v -4.098403 -7.357586 -4.834186
v -3.564286 12.002413 -4.940000
v -4.960000 12.002413 -3.549914
v -4.098403 12.002413 -4.834186
v -4.551205 12.002413 -4.532853
v -4.853757 12.002413 -4.081877
vt 0.473873 -0.157705
vt 0.723873 -0.157705
vt 0.723873 0.021521
vt 0.473873 0.021521
vt 0.864811 0.663785
vt 0.040771 0.654124
vt 0.041302 0.389737
vt 0.878452 0.390806
vt 0.466608 -0.179375
vt 0.731138 -0.179376
vt 0.470426 -0.196456
vt 0.727320 -0.196456
vt 0.075938 0.368623
vt 0.879950 0.367863
vt 0.874649 0.376763
vt 0.048345 0.381137
vt 0.057820 0.376086
vt 0.876470 0.371393
vt 0.878907 0.392433
vt 0.039724 0.390294
vt 0.223873 -0.407835
vt 0.391435 -0.616914
vt 0.393980 -0.606242
vt 0.397780 -0.594308
vt 0.259047 -0.443009
vt 0.437448 -0.443009
vt 0.466380 -0.457073
vt 0.470322 -0.439448
vt 0.472951 -0.420521
vt 0.473873 -0.406584
vt 0.473873 -0.228313
vt 0.472977 -0.214803
vt 0.438569 -0.193009
vt 0.259343 -0.193009
vt 0.245777 -0.195709
vt 0.234281 -0.203398
vt 0.226581 -0.214905
vt 0.223873 -0.228479
vt 0.045584 0.637825
vt 0.867909 0.648198
vt 0.868703 0.662427
vt 0.041079 0.652037
vt 0.045359 0.659703
vt 0.863737 0.668927
vt 0.847714 0.679882
vt 0.065643 0.672075
vt 0.727425 -0.439448
vt 0.731367 -0.457073
vt 0.473873 -0.479434
vt 0.723873 -0.479434
vt 0.473873 -0.657835
vt 0.723873 -0.657835
vt 0.723873 0.035095
vt 0.473873 0.035095
vt 0.723873 0.056991
vt 0.473873 0.056991
vt 0.473873 -0.943009
vt 0.723873 -0.943009
vt 0.723873 -0.921113
vt 0.473873 -0.921113
vt 0.723873 -0.907539
vt 0.473873 -0.907539
vt 0.723873 -0.406584
vt 0.724795 -0.420521
vt 0.760298 -0.443009
vt 0.938699 -0.443009
vt 0.799966 -0.594308
vt 0.803766 -0.606242
vt 0.806311 -0.616914
vt 0.973873 -0.407835
vt 0.973873 -0.228479
vt 0.971165 -0.214905
vt 0.963465 -0.203398
vt 0.951969 -0.195709
vt 0.938403 -0.193009
vt 0.759177 -0.193009
vt 0.724769 -0.214803
vt 0.723873 -0.228313
vt 0.473873 -0.728183
vt 0.723873 -0.728183
vn 0.0000 0.0000 1.0000
vn 1.0000 0.0000 0.0000
vn 0.1943 0.0000 0.9809
vn 0.5540 0.0000 0.8325
vn 0.8304 0.0000 0.5571
vn 0.9806 0.0000 0.1959
vn 0.0000 -1.0000 0.0000
vn 0.9806 0.0000 -0.1959
vn 0.8304 0.0000 -0.5571
vn 0.5540 0.0000 -0.8325
vn 0.1943 0.0000 -0.9809
vn 0.0000 0.0000 -1.0000
vn -0.1943 0.0000 0.9809
vn -0.5540 0.0000 0.8325
vn -0.8304 0.0000 0.5571
vn -0.9806 0.0000 0.1958
vn 0.0000 1.0000 0.0000
vn -0.1943 0.0000 -0.9809
vn -0.5540 0.0000 -0.8325
vn -0.8304 0.0000 -0.5571
vn -0.9806 0.0000 -0.1959
vn -1.0000 0.0000 0.0000
usemtl Material.001
s off
f 26/57/17 30/58/17 51/59/17 45/60/17
f 36/61/18 40/62/18 31/63/18 25/64/18
f 30/58/19 26/57/19 29/65/19 32/66/19
f 32/66/20 29/65/20 28/67/20 33/68/20
f 33/69/21 28/70/21 27/71/21 34/72/21
f 34/73/22 27/74/22 25/75/22 31/76/22
f 55/77/23 57/78/23 58/79/23 59/80/23 56/81/23 35/82/23 37/83/23 38/84/23 39/85/23 36/86/23 25/87/23 27/88/23 28/67/23 29/65/23 26/89/23 45/90/23 47/91/23 48/92/23 49/93/23 46/94/23
f 40/95/24 36/96/24 39/97/24 42/98/24
f 42/99/25 39/100/25 38/101/25 43/102/25
f 43/103/26 38/84/26 37/83/26 44/104/26
f 44/104/27 37/83/27 35/105/27 41/106/27
f 56/107/28 60/108/28 41/106/28 35/105/28
f 45/60/29 51/59/29 54/109/29 47/110/29
f 47/110/30 54/109/30 53/111/30 48/112/30
f 48/113/31 53/114/31 52/115/31 49/116/31
f 49/116/32 52/115/32 50/117/32 46/118/32
f 40/119/33 42/120/33 43/103/33 44/104/33 41/121/33 60/122/33 62/123/33 63/124/33 64/125/33 61/126/33 50/127/33 52/128/33 53/129/33 54/130/33 51/131/33 30/132/33 32/66/33 33/68/33 34/133/33 31/134/33
f 60/108/34 56/107/34 59/80/34 62/123/34
f 62/123/35 59/80/35 58/79/35 63/124/35
f 63/124/36 58/79/36 57/78/36 64/125/36
f 64/125/37 57/78/37 55/135/37 61/136/37
f 46/118/38 50/117/38 61/136/38 55/135/38
o Cube.003
v -3.300000 11.543543 3.300000
v -3.300000 13.223543 3.300000
v -3.300000 11.543543 -3.300000
v -3.300000 13.223543 -3.300000
v 3.300000 11.543543 3.300000
v 3.300000 13.223543 3.300000
v 3.300000 11.543543 -3.300000
v 3.300000 13.223543 -3.300000
vt 1.143462 0.932735
vt 0.893463 0.932010
vt 0.894188 0.682011
vt 1.144187 0.682736
vt 0.894913 0.432012
vt 1.144912 0.432738
vt 0.895639 0.182014
vt 1.145637 0.182739
vt 0.896364 -0.067985
vt 1.146363 -0.067260
vt 1.394911 0.433463
vt 1.395636 0.183464
vt 0.644915 0.431287
vt 0.645640 0.181288
vn -1.0000 0.0000 0.0000
vn 0.0000 0.0000 -1.0000
vn 1.0000 0.0000 0.0000
vn 0.0000 0.0000 1.0000
vn 0.0000 -1.0000 0.0000
vn 0.0000 1.0000 0.0000
usemtl None
s off
f 65/137/39 66/138/39 68/139/39 67/140/39
f 67/140/40 68/139/40 72/141/40 71/142/40
f 71/142/41 72/141/41 70/143/41 69/144/41
f 69/144/42 70/143/42 66/145/42 65/146/42
f 67/147/43 71/142/43 69/144/43 65/148/43
f 72/141/44 68/149/44 66/150/44 70/143/44
o Cube.004
v -2.060000 13.120000 2.060000
v -2.060000 13.599999 2.060000
v -2.060000 13.120000 -2.060000
v -2.060000 13.599999 -2.060000
v 2.060000 13.120000 2.060000
v 2.060000 13.599999 2.060000
v 2.060000 13.120000 -2.060000
v 2.060000 13.599999 -2.060000
vt 1.440187 0.067631
vt 1.690187 0.067631
vt 1.690187 0.317631
vt 1.440187 0.317631
vt 1.690187 0.567631
vt 1.440187 0.567631
vt 1.690187 0.817631
vt 1.440187 0.817631
vt 1.690187 1.067631
vt 1.440187 1.067631
vt 1.190187 0.567631
vt 1.190187 0.817631
vt 1.940187 0.567631
vt 1.940187 0.817631
vn -1.0000 0.0000 0.0000
vn 0.0000 0.0000 -1.0000
vn 1.0000 0.0000 0.0000
vn 0.0000 0.0000 1.0000
vn 0.0000 -1.0000 0.0000
vn 0.0000 1.0000 0.0000
usemtl None
s off
f 73/151/45 74/152/45 76/153/45 75/154/45
f 75/154/46 76/153/46 80/155/46 79/156/46
f 79/156/47 80/155/47 78/157/47 77/158/47
f 77/158/48 78/157/48 74/159/48 73/160/48
f 75/161/49 79/156/49 77/158/49 73/162/49
f 80/155/50 76/163/50 74/164/50 78/157/50
